<svg width="36" height="36" viewBox="0 0 36 36" fill="none" xmlns="http://www.w3.org/2000/svg">
<path d="M34.8749 24.75C34.2539 24.75 33.75 25.2541 33.75 25.875V33.75H2.25004V25.875C2.25004 25.254 1.746 24.75 1.12506 24.75C0.504133 24.75 0 25.254 0 25.875V34.8749C0 35.496 0.504039 35.9999 1.12497 35.9999H34.8749C35.496 35.9999 35.9999 35.4959 35.9999 34.8749V25.875C36 25.254 35.496 24.75 34.8749 24.75Z" fill="#40394A"/>
<path d="M17.1788 26.6703C17.6164 27.1035 18.3488 27.108 18.7864 26.6703L26.6602 18.9078C27.1046 18.4679 27.1035 17.7558 26.6602 17.3171C26.217 16.8772 25.497 16.8772 25.0538 17.3171L19.1194 23.1671V1.12497C19.1194 0.503946 18.6108 0 17.9831 0C17.3553 0 16.8468 0.504039 16.8468 1.12497V23.1671L10.9124 17.3171C10.468 16.8772 9.74919 16.8772 9.30594 17.3171C8.86156 17.757 8.86156 18.4691 9.30594 18.9078L17.1788 26.6703Z" fill="#40394A"/>
</svg>
