<svg width="36" height="36" viewBox="0 0 36 36" fill="none" xmlns="http://www.w3.org/2000/svg">
<path d="M34.8794 4.38038L31.6172 1.11789C30.1266 -0.372664 27.7016 -0.372594 26.211 1.11789C24.8076 2.52139 3.37246 23.9582 1.93999 25.3907C1.78741 25.5433 1.68517 25.7461 1.64875 25.9444L0.0176424 34.7531C-0.0455685 35.0946 0.0632753 35.4454 0.308877 35.691C0.55476 35.9369 0.905619 36.0456 1.2467 35.9823L10.0547 34.351C10.2582 34.3131 10.4583 34.2098 10.6084 34.0597L34.8794 9.78691C36.3734 8.29291 36.3736 5.87459 34.8794 4.38038ZM2.371 33.6287L3.3577 28.3002L7.69921 32.6419L2.371 33.6287ZM9.86266 31.8223L4.17726 26.1366L24.9342 5.37804L30.6196 11.0639L9.86266 31.8223ZM33.3879 8.29537L32.1111 9.57232L26.4257 3.88651L27.7025 2.60956C28.3705 1.94146 29.4575 1.94139 30.1257 2.60956L33.3879 5.87206C34.0576 6.54178 34.0576 7.62558 33.3879 8.29537Z" fill="#40394A"/>
</svg>
