<svg width="35" height="41" viewBox="0 0 35 41" fill="none" xmlns="http://www.w3.org/2000/svg">
<path d="M33.9062 0H18.5937C17.9899 0 17.5 0.574045 17.5 1.28122C17.5 1.98839 17.99 2.56243 18.5937 2.56243H32.8125V38.4374H18.5937C17.9899 38.4374 17.5 39.0114 17.5 39.7186C17.5 40.4257 17.99 40.9998 18.5937 40.9998H33.9062C34.51 40.9998 34.9999 40.4257 34.9999 39.7186V1.28122C35 0.574045 34.51 0 33.9062 0Z" fill="#1C1427"/>
<path d="M17.9299 28.5719C17.5022 29.078 17.5022 29.8967 17.9299 30.4015C18.3575 30.9076 19.0498 30.9076 19.4764 30.4015L27.0222 21.434C27.4433 20.9356 27.4477 20.1015 27.0222 19.6032L19.4753 10.6357C19.0477 10.1296 18.3553 10.1309 17.9288 10.6357C17.5011 11.1405 17.5011 11.9605 17.9288 12.4653L23.6163 19.2239H1.09372C0.490038 19.2239 0 19.803 0 20.5179C0 21.2329 0.490038 21.812 1.09372 21.812H23.6173L17.9299 28.5719Z" fill="#1C1427"/>
</svg>
