<svg width="35" height="41" viewBox="0 0 35 41" fill="none" xmlns="http://www.w3.org/2000/svg">
<g clip-path="url(#clip0)">
<path d="M16.4062 38.4383H2.18753V2.5634H16.4062C17.01 2.5634 17.5 1.98936 17.5 1.28219C17.5 0.57502 17.0099 0.000976562 16.4062 0.000976562H1.09372C0.490037 0.000976562 0 0.574913 0 1.28219V39.7195C0 40.4268 0.490037 41.0008 1.09372 41.0008H16.4061C17.0099 41.0008 17.4999 40.4267 17.4999 39.7195C17.5 39.0123 17.0099 38.4383 16.4062 38.4383Z" fill="#1C1427"/>
<path d="M34.6827 19.6057L27.1358 10.6382C26.7082 10.1322 26.0158 10.1334 25.5893 10.6382C25.1616 11.1431 25.1616 11.963 25.5893 12.4678L31.2768 19.2264H8.75326C8.14949 19.2264 7.65955 19.8056 7.65955 20.5205C7.65955 21.2355 8.14958 21.8146 8.75326 21.8146H31.2768L25.5893 28.5732C25.1616 29.0793 25.1616 29.898 25.5893 30.4028C26.0169 30.9089 26.7092 30.9089 27.1358 30.4028L34.6816 21.4354C35.1038 20.9369 35.1081 20.1028 34.6827 19.6057Z" fill="#1C1427"/>
</g>
<defs>
<clipPath id="clip0">
<rect width="35" height="41" fill="white"/>
</clipPath>
</defs>
</svg>
