<svg width="41" height="41" viewBox="0 0 41 41" fill="none" xmlns="http://www.w3.org/2000/svg">
<path d="M20.5 0C9.1963 0 0 9.1963 0 20.5C0 25.4508 1.76437 29.997 4.69723 33.5435C4.70475 33.5537 4.70543 33.5667 4.71363 33.5763C6.83128 36.1299 9.49082 38.0876 12.4544 39.3525C12.4886 39.3668 12.5221 39.3825 12.5562 39.3969C12.7961 39.498 13.0387 39.5917 13.2819 39.6832C13.3776 39.7194 13.4733 39.7563 13.5703 39.7912C13.7801 39.8663 13.9913 39.9374 14.2038 40.0057C14.3397 40.0495 14.4757 40.0925 14.6131 40.1335C14.801 40.1896 14.9896 40.2435 15.1796 40.2948C15.3463 40.3399 15.5144 40.3816 15.6825 40.4219C15.8527 40.4629 16.0235 40.5039 16.195 40.5401C16.3863 40.5811 16.5797 40.6173 16.7738 40.6529C16.9296 40.6816 17.0847 40.7116 17.2419 40.7369C17.4571 40.7718 17.6737 40.7991 17.891 40.8271C18.0311 40.8449 18.1705 40.8654 18.3113 40.8804C18.5573 40.9064 18.8053 40.9248 19.0541 40.9419C19.1695 40.9501 19.2844 40.9624 19.4005 40.9686C19.7634 40.9891 20.1303 41 20.5 41C20.8697 41 21.2366 40.9891 21.6009 40.9699C21.717 40.9638 21.8318 40.9515 21.9473 40.9433C22.196 40.9255 22.4441 40.9077 22.6901 40.8818C22.8309 40.8667 22.9702 40.8463 23.1103 40.8285C23.3276 40.8005 23.5443 40.7731 23.7595 40.7383C23.916 40.713 24.0718 40.6829 24.2276 40.6542C24.421 40.6187 24.6143 40.5825 24.8064 40.5415C24.9779 40.5046 25.148 40.4643 25.3189 40.4233C25.487 40.3823 25.6551 40.3406 25.8218 40.2962C26.0118 40.2456 26.2004 40.1909 26.3883 40.1349C26.5256 40.0939 26.6616 40.0508 26.7976 40.0071C27.0101 39.9388 27.2213 39.8677 27.4311 39.7926C27.5274 39.7577 27.6231 39.7208 27.7194 39.6846C27.9634 39.593 28.2053 39.4987 28.4451 39.3983C28.4793 39.3839 28.5128 39.3682 28.5469 39.3539C31.5099 38.089 34.1701 36.1313 36.2877 33.5776C36.2959 33.5681 36.2966 33.5544 36.3041 33.5448C39.2356 29.997 41 25.4508 41 20.5C41 9.1963 31.8037 0 20.5 0ZM28.8073 37.7337C28.797 37.7385 28.7875 37.7439 28.7772 37.7487C28.5333 37.8662 28.2852 37.9769 28.0351 38.0849C27.9784 38.1088 27.9224 38.1334 27.8657 38.1573C27.647 38.2489 27.4256 38.3357 27.2028 38.419C27.1099 38.4539 27.017 38.4881 26.9233 38.5209C26.7259 38.5913 26.5277 38.6589 26.3275 38.7231C26.2031 38.7628 26.0781 38.8004 25.953 38.8372C25.7753 38.8905 25.597 38.9418 25.4166 38.9896C25.2649 39.0299 25.1118 39.0668 24.9588 39.1031C24.7982 39.1413 24.6383 39.1803 24.4763 39.2145C24.2993 39.252 24.121 39.2841 23.9433 39.3163C23.7991 39.3429 23.6556 39.3709 23.5101 39.3942C23.3099 39.4256 23.1076 39.4509 22.906 39.4762C22.7782 39.4926 22.6511 39.5117 22.522 39.5254C22.2917 39.55 22.0594 39.5657 21.8277 39.5821C21.7245 39.5889 21.622 39.6005 21.5175 39.606C21.1792 39.6238 20.8403 39.6333 20.5 39.6333C20.1597 39.6333 19.8208 39.6238 19.4832 39.606C19.3793 39.6005 19.2768 39.5896 19.173 39.5821C18.9406 39.5664 18.709 39.55 18.4787 39.5254C18.3496 39.5117 18.2225 39.4926 18.0947 39.4762C17.8931 39.4509 17.6908 39.4256 17.4906 39.3942C17.3451 39.3709 17.2015 39.3429 17.0574 39.3163C16.879 39.2841 16.7007 39.2514 16.5244 39.2145C16.3624 39.1803 16.2018 39.1413 16.0419 39.1031C15.8889 39.0662 15.7358 39.0299 15.5841 38.9896C15.4044 38.9418 15.2254 38.8899 15.0477 38.8372C14.9226 38.8004 14.7976 38.7628 14.6732 38.7231C14.473 38.6589 14.2741 38.5913 14.0773 38.5209C13.9837 38.4874 13.8908 38.4532 13.7979 38.419C13.5751 38.3357 13.3537 38.2489 13.135 38.1573C13.0783 38.1341 13.023 38.1095 12.9663 38.0856C12.7162 37.9783 12.4681 37.8669 12.2235 37.7494C12.2132 37.7446 12.2036 37.7398 12.1934 37.7344C9.80925 36.5809 7.70322 34.9436 5.9942 32.9551C7.31508 28.0912 11.0543 24.1702 15.8649 22.6101C15.9599 22.6682 16.059 22.7201 16.1567 22.7748C16.2141 22.8069 16.2708 22.8411 16.3289 22.8719C16.5326 22.9798 16.7389 23.0809 16.9501 23.1718C17.112 23.2429 17.2794 23.303 17.4462 23.3645C17.479 23.3762 17.5118 23.3891 17.5446 23.4007C18.4712 23.7288 19.4627 23.9167 20.5 23.9167C21.5373 23.9167 22.5288 23.7288 23.4547 23.4007C23.4875 23.3891 23.5203 23.3762 23.5531 23.3645C23.7199 23.303 23.8873 23.2429 24.0492 23.1718C24.2604 23.0809 24.4668 22.9798 24.6704 22.8719C24.7285 22.8404 24.7852 22.8069 24.8426 22.7748C24.9403 22.7201 25.0401 22.6682 25.1357 22.6095C29.9464 24.1702 33.6849 28.0912 35.0065 32.9544C33.2975 34.9423 31.1914 36.5795 28.8073 37.7337ZM12.9833 15.0333C12.9833 10.8889 16.3556 7.51667 20.5 7.51667C24.6444 7.51667 28.0167 10.8889 28.0167 15.0333C28.0167 17.6696 26.6493 19.9895 24.5891 21.3316C24.3198 21.5065 24.0397 21.663 23.752 21.7997C23.7178 21.8161 23.6843 21.8332 23.6502 21.8489C21.6712 22.7488 19.3288 22.7488 17.3498 21.8489C17.3157 21.8332 17.2815 21.8161 17.248 21.7997C16.9597 21.663 16.6802 21.5065 16.4109 21.3316C14.3507 19.9895 12.9833 17.6696 12.9833 15.0333ZM36.0315 31.6541C34.4824 27.0798 30.9482 23.383 26.4327 21.6268C28.2388 19.9998 29.3833 17.6505 29.3833 15.0333C29.3833 10.1352 25.3981 6.15 20.5 6.15C15.6019 6.15 11.6167 10.1352 11.6167 15.0333C11.6167 17.6505 12.7613 19.9998 14.568 21.6268C10.0525 23.3837 6.51832 27.0798 4.9692 31.6541C2.70532 28.5114 1.36667 24.6601 1.36667 20.5C1.36667 9.95002 9.95002 1.36667 20.5 1.36667C31.05 1.36667 39.6333 9.95002 39.6333 20.5C39.6333 24.6601 38.2947 28.5114 36.0315 31.6541Z" fill="#1C1427"/>
</svg>
