<svg width="101" height="42" viewBox="0 0 101 42" fill="none" xmlns="http://www.w3.org/2000/svg">
<rect x="0.5" y="1.5" width="100" height="40" rx="8.5" stroke="#1C1427"/>
<path d="M20.9336 24.6055C20.9336 23.8555 20.668 23.2773 20.1367 22.8711C19.6133 22.4648 18.6641 22.0547 17.2891 21.6406C15.9141 21.2266 14.8203 20.7656 14.0078 20.2578C12.4531 19.2812 11.6758 18.0078 11.6758 16.4375C11.6758 15.0625 12.2344 13.9297 13.3516 13.0391C14.4766 12.1484 15.9336 11.7031 17.7227 11.7031C18.9102 11.7031 19.9688 11.9219 20.8984 12.3594C21.8281 12.7969 22.5586 13.4219 23.0898 14.2344C23.6211 15.0391 23.8867 15.9336 23.8867 16.918H20.9336C20.9336 16.0273 20.6523 15.332 20.0898 14.832C19.5352 14.3242 18.7383 14.0703 17.6992 14.0703C16.7305 14.0703 15.9766 14.2773 15.4375 14.6914C14.9062 15.1055 14.6406 15.6836 14.6406 16.4258C14.6406 17.0508 14.9297 17.5742 15.5078 17.9961C16.0859 18.4102 17.0391 18.8164 18.3672 19.2148C19.6953 19.6055 20.7617 20.0547 21.5664 20.5625C22.3711 21.0625 22.9609 21.6406 23.3359 22.2969C23.7109 22.9453 23.8984 23.707 23.8984 24.582C23.8984 26.0039 23.3516 27.1367 22.2578 27.9805C21.1719 28.8164 19.6953 29.2344 17.8281 29.2344C16.5938 29.2344 15.457 29.0078 14.418 28.5547C13.3867 28.0938 12.582 27.4609 12.0039 26.6562C11.4336 25.8516 11.1484 24.9141 11.1484 23.8438H14.1133C14.1133 24.8125 14.4336 25.5625 15.0742 26.0938C15.7148 26.625 16.6328 26.8906 17.8281 26.8906C18.8594 26.8906 19.6328 26.6836 20.1484 26.2695C20.6719 25.8477 20.9336 25.293 20.9336 24.6055ZM29.2539 29H26.4062V16.3203H29.2539V29ZM26.2305 13.0273C26.2305 12.5898 26.3672 12.2266 26.6406 11.9375C26.9219 11.6484 27.3203 11.5039 27.8359 11.5039C28.3516 11.5039 28.75 11.6484 29.0312 11.9375C29.3125 12.2266 29.4531 12.5898 29.4531 13.0273C29.4531 13.457 29.3125 13.8164 29.0312 14.1055C28.75 14.3867 28.3516 14.5273 27.8359 14.5273C27.3203 14.5273 26.9219 14.3867 26.6406 14.1055C26.3672 13.8164 26.2305 13.457 26.2305 13.0273ZM31.8672 22.5664C31.8672 20.5977 32.3281 19.0273 33.25 17.8555C34.1797 16.6758 35.4102 16.0859 36.9414 16.0859C38.3867 16.0859 39.5234 16.5898 40.3516 17.5977L40.4805 16.3203H43.0469V28.6133C43.0469 30.2773 42.5273 31.5898 41.4883 32.5508C40.457 33.5117 39.0625 33.9922 37.3047 33.9922C36.375 33.9922 35.4648 33.7969 34.5742 33.4062C33.6914 33.0234 33.0195 32.5195 32.5586 31.8945L33.9062 30.1836C34.7812 31.2227 35.8594 31.7422 37.1406 31.7422C38.0859 31.7422 38.832 31.4844 39.3789 30.9688C39.9258 30.4609 40.1992 29.7109 40.1992 28.7188V27.8633C39.3789 28.7773 38.2852 29.2344 36.918 29.2344C35.4336 29.2344 34.2188 28.6445 33.2734 27.4648C32.3359 26.2852 31.8672 24.6523 31.8672 22.5664ZM34.7031 22.8125C34.7031 24.0859 34.9609 25.0898 35.4766 25.8242C36 26.5508 36.7227 26.9141 37.6445 26.9141C38.793 26.9141 39.6445 26.4219 40.1992 25.4375V19.8594C39.6602 18.8984 38.8164 18.418 37.668 18.418C36.7305 18.418 36 18.7891 35.4766 19.5312C34.9609 20.2734 34.7031 21.3672 34.7031 22.8125ZM48.625 16.3203L48.707 17.7852C49.6445 16.6523 50.875 16.0859 52.3984 16.0859C55.0391 16.0859 56.3828 17.5977 56.4297 20.6211V29H53.582V20.7852C53.582 19.9805 53.4062 19.3867 53.0547 19.0039C52.7109 18.6133 52.1445 18.418 51.3555 18.418C50.207 18.418 49.3516 18.9375 48.7891 19.9766V29H45.9414V16.3203H48.625ZM73 27.7578C72.1641 28.7422 70.9766 29.2344 69.4375 29.2344C68.0625 29.2344 67.0195 28.832 66.3086 28.0273C65.6055 27.2227 65.2539 26.0586 65.2539 24.5352V16.3203H68.1016V24.5C68.1016 26.1094 68.7695 26.9141 70.1055 26.9141C71.4883 26.9141 72.4219 26.418 72.9062 25.4258V16.3203H75.7539V29H73.0703L73 27.7578ZM89.7578 22.7891C89.7578 24.75 89.3125 26.3164 88.4219 27.4883C87.5312 28.6523 86.3359 29.2344 84.8359 29.2344C83.4453 29.2344 82.332 28.7773 81.4961 27.8633V33.875H78.6484V16.3203H81.2734L81.3906 17.6094C82.2266 16.5938 83.3633 16.0859 84.8008 16.0859C86.3477 16.0859 87.5586 16.6641 88.4336 17.8203C89.3164 18.9688 89.7578 20.5664 89.7578 22.6133V22.7891ZM86.9219 22.543C86.9219 21.2773 86.668 20.2734 86.1602 19.5312C85.6602 18.7891 84.9414 18.418 84.0039 18.418C82.8398 18.418 82.0039 18.8984 81.4961 19.8594V25.4844C82.0117 26.4688 82.8555 26.9609 84.0273 26.9609C84.9336 26.9609 85.6406 26.5977 86.1484 25.8711C86.6641 25.1367 86.9219 24.0273 86.9219 22.543Z" fill="#1C1427"/>
</svg>
